# xmcd
#
# Track frame offsets: 
#        150
#        21560
#        42689
#        53724
#
# Disc length: 938 seconds
#
# Revision: 0
# Processed by: cddbd v1.5.1PL2 Copyright (c) Steve Scherf et al.
# Submitted via: ExactAudioCopy v0.95b3
#
DISCID=3503a804
DTITLE=Various Artist - A Tribute To Muddy Waters King Of The Blues (sampler)
DYEAR=1999
DGENRE=Blues
TTITLE0=Phoebe Snow-Just To Be With You
TTITLE1=John Hiatt-The Same Thing
TTITLE2=Peter Wolf-Rollin' and Tumblin'
TTITLE3=Keb' Mo-I Can't Be Satisfied
EXTD=
EXTT0=
EXTT1=
EXTT2=
EXTT3=
PLAYORDER=
